<mxfile host="app.diagrams.net" modified="2021-03-14T08:03:05.523Z" agent="5.0 (Macintosh; Intel Mac OS X 10_14_6) AppleWebKit/537.36 (KHTML, like Gecko) Chrome/87.0.4280.88 Safari/537.36" etag="jfL3iud9UBS1U0yMuqUQ" version="14.4.8" type="github">
  <diagram id="DGaI7L7fWnckIXQNMXlM" name="Page-1">
    <mxGraphModel dx="950" dy="532" grid="1" gridSize="10" guides="1" tooltips="1" connect="1" arrows="1" fold="1" page="1" pageScale="1" pageWidth="827" pageHeight="1169" math="0" shadow="0">
      <root>
        <mxCell id="0" />
        <mxCell id="1" parent="0" />
        <mxCell id="6cRro7XXUoIkanzyYa3W-1" value="" style="verticalLabelPosition=bottom;verticalAlign=top;html=1;shadow=0;dashed=0;strokeWidth=1;shape=mxgraph.ios.iPhone;bgStyle=bgGreen;fillColor=#aaaaaa;" vertex="1" parent="1">
          <mxGeometry x="10" y="10" width="160" height="300" as="geometry" />
        </mxCell>
        <mxCell id="6cRro7XXUoIkanzyYa3W-20" value="" style="rounded=0;whiteSpace=wrap;html=1;" vertex="1" parent="1">
          <mxGeometry x="200" y="250" width="240" height="40" as="geometry" />
        </mxCell>
        <mxCell id="6cRro7XXUoIkanzyYa3W-21" value="" style="edgeStyle=orthogonalEdgeStyle;rounded=0;orthogonalLoop=1;jettySize=auto;html=1;" edge="1" parent="1" source="6cRro7XXUoIkanzyYa3W-22" target="6cRro7XXUoIkanzyYa3W-34">
          <mxGeometry relative="1" as="geometry">
            <Array as="points">
              <mxPoint x="230" y="560" />
            </Array>
          </mxGeometry>
        </mxCell>
        <mxCell id="6cRro7XXUoIkanzyYa3W-65" value="C/T" style="edgeLabel;html=1;align=center;verticalAlign=middle;resizable=0;points=[];" vertex="1" connectable="0" parent="6cRro7XXUoIkanzyYa3W-21">
          <mxGeometry x="0.7834" relative="1" as="geometry">
            <mxPoint x="5" as="offset" />
          </mxGeometry>
        </mxCell>
        <mxCell id="6cRro7XXUoIkanzyYa3W-22" value="&lt;font style=&quot;font-size: 9px&quot;&gt;World Clock&lt;/font&gt;" style="rounded=1;whiteSpace=wrap;html=1;verticalAlign=bottom;" vertex="1" parent="1">
          <mxGeometry x="200" y="250" width="60" height="40" as="geometry" />
        </mxCell>
        <mxCell id="6cRro7XXUoIkanzyYa3W-23" value="" style="edgeStyle=orthogonalEdgeStyle;rounded=0;orthogonalLoop=1;jettySize=auto;html=1;" edge="1" parent="1" source="6cRro7XXUoIkanzyYa3W-24" target="6cRro7XXUoIkanzyYa3W-37">
          <mxGeometry relative="1" as="geometry">
            <Array as="points">
              <mxPoint x="290" y="480" />
            </Array>
          </mxGeometry>
        </mxCell>
        <mxCell id="6cRro7XXUoIkanzyYa3W-64" value="C/T" style="edgeLabel;html=1;align=center;verticalAlign=middle;resizable=0;points=[];" vertex="1" connectable="0" parent="6cRro7XXUoIkanzyYa3W-23">
          <mxGeometry x="0.7394" relative="1" as="geometry">
            <mxPoint x="-4" as="offset" />
          </mxGeometry>
        </mxCell>
        <mxCell id="6cRro7XXUoIkanzyYa3W-24" value="&lt;font style=&quot;font-size: 9px&quot;&gt;Alarm&lt;/font&gt;" style="rounded=1;whiteSpace=wrap;html=1;verticalAlign=bottom;" vertex="1" parent="1">
          <mxGeometry x="260" y="250" width="60" height="40" as="geometry" />
        </mxCell>
        <mxCell id="6cRro7XXUoIkanzyYa3W-25" value="" style="edgeStyle=orthogonalEdgeStyle;rounded=0;orthogonalLoop=1;jettySize=auto;html=1;" edge="1" parent="1" source="6cRro7XXUoIkanzyYa3W-26" target="6cRro7XXUoIkanzyYa3W-36">
          <mxGeometry relative="1" as="geometry">
            <Array as="points">
              <mxPoint x="350" y="410" />
            </Array>
          </mxGeometry>
        </mxCell>
        <mxCell id="6cRro7XXUoIkanzyYa3W-63" value="C/T" style="edgeLabel;html=1;align=center;verticalAlign=middle;resizable=0;points=[];" vertex="1" connectable="0" parent="6cRro7XXUoIkanzyYa3W-25">
          <mxGeometry x="0.6647" relative="1" as="geometry">
            <mxPoint x="-12" as="offset" />
          </mxGeometry>
        </mxCell>
        <mxCell id="6cRro7XXUoIkanzyYa3W-26" value="&lt;font style=&quot;font-size: 9px&quot;&gt;Stopwatch&lt;/font&gt;" style="rounded=1;whiteSpace=wrap;html=1;verticalAlign=bottom;" vertex="1" parent="1">
          <mxGeometry x="320" y="250" width="60" height="40" as="geometry" />
        </mxCell>
        <mxCell id="6cRro7XXUoIkanzyYa3W-27" value="" style="edgeStyle=orthogonalEdgeStyle;rounded=0;orthogonalLoop=1;jettySize=auto;html=1;" edge="1" parent="1" source="6cRro7XXUoIkanzyYa3W-28" target="6cRro7XXUoIkanzyYa3W-35">
          <mxGeometry relative="1" as="geometry">
            <Array as="points">
              <mxPoint x="410" y="330" />
            </Array>
          </mxGeometry>
        </mxCell>
        <mxCell id="6cRro7XXUoIkanzyYa3W-60" value="C/T" style="edgeLabel;html=1;align=center;verticalAlign=middle;resizable=0;points=[];" vertex="1" connectable="0" parent="6cRro7XXUoIkanzyYa3W-27">
          <mxGeometry x="0.0345" y="1" relative="1" as="geometry">
            <mxPoint x="-6" as="offset" />
          </mxGeometry>
        </mxCell>
        <mxCell id="6cRro7XXUoIkanzyYa3W-28" value="&lt;font style=&quot;font-size: 9px&quot;&gt;Timer&lt;/font&gt;" style="rounded=1;whiteSpace=wrap;html=1;verticalAlign=bottom;" vertex="1" parent="1">
          <mxGeometry x="380" y="250" width="60" height="40" as="geometry" />
        </mxCell>
        <mxCell id="6cRro7XXUoIkanzyYa3W-29" value="List VIew Follow Tab" style="rounded=0;whiteSpace=wrap;html=1;" vertex="1" parent="1">
          <mxGeometry x="200" y="30" width="240" height="210" as="geometry" />
        </mxCell>
        <mxCell id="6cRro7XXUoIkanzyYa3W-30" value="" style="shape=image;html=1;verticalAlign=top;verticalLabelPosition=bottom;labelBackgroundColor=#ffffff;imageAspect=0;aspect=fixed;image=https://cdn3.iconfinder.com/data/icons/linecons-free-vector-icons-pack/32/world-128.png" vertex="1" parent="1">
          <mxGeometry x="219" y="254" width="20" height="20" as="geometry" />
        </mxCell>
        <mxCell id="6cRro7XXUoIkanzyYa3W-31" value="" style="shape=image;html=1;verticalAlign=top;verticalLabelPosition=bottom;labelBackgroundColor=#ffffff;imageAspect=0;aspect=fixed;image=https://cdn2.iconfinder.com/data/icons/wirecons-free-vector-icons/32/475340-alarm-clock-128.png" vertex="1" parent="1">
          <mxGeometry x="280" y="254" width="20" height="20" as="geometry" />
        </mxCell>
        <mxCell id="6cRro7XXUoIkanzyYa3W-32" value="" style="shape=image;html=1;verticalAlign=top;verticalLabelPosition=bottom;labelBackgroundColor=#ffffff;imageAspect=0;aspect=fixed;image=https://cdn4.iconfinder.com/data/icons/48-bubbles/48/37.Stopwatch-128.png" vertex="1" parent="1">
          <mxGeometry x="338" y="254" width="20" height="20" as="geometry" />
        </mxCell>
        <mxCell id="6cRro7XXUoIkanzyYa3W-33" value="" style="shape=image;html=1;verticalAlign=top;verticalLabelPosition=bottom;labelBackgroundColor=#ffffff;imageAspect=0;aspect=fixed;image=https://cdn2.iconfinder.com/data/icons/ios-7-icons/50/timer-128.png" vertex="1" parent="1">
          <mxGeometry x="400" y="254" width="20" height="20" as="geometry" />
        </mxCell>
        <mxCell id="6cRro7XXUoIkanzyYa3W-34" value="View&lt;br&gt;WorldClock_UIController" style="whiteSpace=wrap;html=1;rounded=1;verticalAlign=middle;" vertex="1" parent="1">
          <mxGeometry x="460" y="540" width="142" height="40" as="geometry" />
        </mxCell>
        <mxCell id="6cRro7XXUoIkanzyYa3W-77" style="edgeStyle=orthogonalEdgeStyle;rounded=0;orthogonalLoop=1;jettySize=auto;html=1;entryX=0;entryY=0.5;entryDx=0;entryDy=0;fontColor=#CCCC00;" edge="1" parent="1" source="6cRro7XXUoIkanzyYa3W-35" target="6cRro7XXUoIkanzyYa3W-39">
          <mxGeometry relative="1" as="geometry" />
        </mxCell>
        <mxCell id="6cRro7XXUoIkanzyYa3W-35" value="View&lt;br&gt;Timer_UIController" style="whiteSpace=wrap;html=1;rounded=1;verticalAlign=middle;" vertex="1" parent="1">
          <mxGeometry x="462" y="310" width="140" height="40" as="geometry" />
        </mxCell>
        <mxCell id="6cRro7XXUoIkanzyYa3W-36" value="View&lt;br&gt;Stopwatch_UIController" style="whiteSpace=wrap;html=1;rounded=1;verticalAlign=middle;" vertex="1" parent="1">
          <mxGeometry x="462" y="390" width="140" height="40" as="geometry" />
        </mxCell>
        <mxCell id="6cRro7XXUoIkanzyYa3W-37" value="View&lt;br&gt;Alarm_UIController" style="whiteSpace=wrap;html=1;rounded=1;verticalAlign=middle;" vertex="1" parent="1">
          <mxGeometry x="462" y="460" width="140" height="40" as="geometry" />
        </mxCell>
        <mxCell id="6cRro7XXUoIkanzyYa3W-39" value="" style="rounded=0;whiteSpace=wrap;html=1;" vertex="1" parent="1">
          <mxGeometry x="640" y="210" width="210" height="240" as="geometry" />
        </mxCell>
        <mxCell id="6cRro7XXUoIkanzyYa3W-40" value="" style="rounded=0;whiteSpace=wrap;html=1;dashed=1;" vertex="1" parent="1">
          <mxGeometry x="650" y="220" width="190" height="120" as="geometry" />
        </mxCell>
        <mxCell id="6cRro7XXUoIkanzyYa3W-41" value="6 hours" style="text;html=1;strokeColor=none;fillColor=none;align=center;verticalAlign=middle;whiteSpace=wrap;rounded=0;dashed=1;dashPattern=1 4;" vertex="1" parent="1">
          <mxGeometry x="660" y="260" width="50" height="20" as="geometry" />
        </mxCell>
        <mxCell id="6cRro7XXUoIkanzyYa3W-42" value="20 min" style="text;html=1;strokeColor=none;fillColor=none;align=center;verticalAlign=middle;whiteSpace=wrap;rounded=0;dashed=1;dashPattern=1 4;" vertex="1" parent="1">
          <mxGeometry x="720" y="260" width="50" height="20" as="geometry" />
        </mxCell>
        <mxCell id="6cRro7XXUoIkanzyYa3W-43" value="24 sec" style="text;html=1;strokeColor=none;fillColor=none;align=center;verticalAlign=middle;whiteSpace=wrap;rounded=0;dashed=1;dashPattern=1 4;" vertex="1" parent="1">
          <mxGeometry x="780" y="260" width="50" height="20" as="geometry" />
        </mxCell>
        <mxCell id="6cRro7XXUoIkanzyYa3W-44" value="19" style="text;html=1;align=center;verticalAlign=middle;whiteSpace=wrap;rounded=0;dashed=1;dashPattern=1 4;textOpacity=60;" vertex="1" parent="1">
          <mxGeometry x="720" y="240" width="40" height="20" as="geometry" />
        </mxCell>
        <mxCell id="6cRro7XXUoIkanzyYa3W-45" value="21" style="text;html=1;align=center;verticalAlign=middle;whiteSpace=wrap;rounded=0;dashed=1;dashPattern=1 4;textOpacity=60;" vertex="1" parent="1">
          <mxGeometry x="720" y="280" width="40" height="20" as="geometry" />
        </mxCell>
        <mxCell id="6cRro7XXUoIkanzyYa3W-46" value="5" style="text;html=1;align=center;verticalAlign=middle;whiteSpace=wrap;rounded=0;dashed=1;dashPattern=1 4;textOpacity=60;" vertex="1" parent="1">
          <mxGeometry x="660" y="240" width="30" height="20" as="geometry" />
        </mxCell>
        <mxCell id="6cRro7XXUoIkanzyYa3W-47" value="7" style="text;html=1;align=center;verticalAlign=middle;whiteSpace=wrap;rounded=0;dashed=1;dashPattern=1 4;textOpacity=60;" vertex="1" parent="1">
          <mxGeometry x="660" y="280" width="30" height="20" as="geometry" />
        </mxCell>
        <mxCell id="6cRro7XXUoIkanzyYa3W-48" value="23" style="text;html=1;align=center;verticalAlign=middle;whiteSpace=wrap;rounded=0;dashed=1;dashPattern=1 4;textOpacity=60;" vertex="1" parent="1">
          <mxGeometry x="780" y="240" width="40" height="20" as="geometry" />
        </mxCell>
        <mxCell id="6cRro7XXUoIkanzyYa3W-49" value="25" style="text;html=1;align=center;verticalAlign=middle;whiteSpace=wrap;rounded=0;dashed=1;dashPattern=1 4;textOpacity=60;" vertex="1" parent="1">
          <mxGeometry x="780" y="280" width="40" height="20" as="geometry" />
        </mxCell>
        <mxCell id="6cRro7XXUoIkanzyYa3W-50" value="" style="rounded=0;whiteSpace=wrap;html=1;dashed=1;" vertex="1" parent="1">
          <mxGeometry x="650" y="350" width="190" height="30" as="geometry" />
        </mxCell>
        <mxCell id="6cRro7XXUoIkanzyYa3W-52" value="Cancel" style="dashed=0;align=center;fontSize=12;shape=rect;fillColor=#999999;opacity=40;strokeColor=none;fontStyle=0;dashPattern=1 4;textOpacity=50;" vertex="1" parent="1">
          <mxGeometry x="660" y="357" width="60" height="16" as="geometry" />
        </mxCell>
        <mxCell id="6cRro7XXUoIkanzyYa3W-79" value="" style="edgeStyle=orthogonalEdgeStyle;rounded=0;orthogonalLoop=1;jettySize=auto;html=1;fontColor=#CCCC00;entryX=0;entryY=0.5;entryDx=0;entryDy=0;" edge="1" parent="1" source="6cRro7XXUoIkanzyYa3W-54" target="6cRro7XXUoIkanzyYa3W-80">
          <mxGeometry relative="1" as="geometry">
            <mxPoint x="880" y="364.9999999999999" as="targetPoint" />
          </mxGeometry>
        </mxCell>
        <mxCell id="6cRro7XXUoIkanzyYa3W-54" value="Start" style="dashed=0;align=center;fontSize=12;shape=rect;opacity=70;strokeColor=none;fontStyle=0;dashPattern=1 4;fillColor=#666666;fontColor=#CCCC00;" vertex="1" parent="1">
          <mxGeometry x="770" y="357" width="60" height="16" as="geometry" />
        </mxCell>
        <mxCell id="6cRro7XXUoIkanzyYa3W-67" value="View By Tab" style="rounded=0;whiteSpace=wrap;html=1;" vertex="1" parent="1">
          <mxGeometry x="20" y="330" width="80" height="20" as="geometry" />
        </mxCell>
        <mxCell id="6cRro7XXUoIkanzyYa3W-68" value="Sub View" style="rounded=0;whiteSpace=wrap;html=1;dashed=1;" vertex="1" parent="1">
          <mxGeometry x="20" y="360" width="80" height="20" as="geometry" />
        </mxCell>
        <mxCell id="6cRro7XXUoIkanzyYa3W-69" value="" style="rounded=0;whiteSpace=wrap;html=1;dashed=1;dashPattern=1 1;" vertex="1" parent="1">
          <mxGeometry x="20" y="390" width="80" height="20" as="geometry" />
        </mxCell>
        <mxCell id="6cRro7XXUoIkanzyYa3W-70" value="Present View" style="rounded=0;whiteSpace=wrap;html=1;dashed=1;dashPattern=1 2;" vertex="1" parent="1">
          <mxGeometry x="20" y="420" width="80" height="20" as="geometry" />
        </mxCell>
        <mxCell id="6cRro7XXUoIkanzyYa3W-71" value="Table" style="rounded=0;whiteSpace=wrap;html=1;dashed=1;dashPattern=1 4;" vertex="1" parent="1">
          <mxGeometry x="20" y="450" width="80" height="20" as="geometry" />
        </mxCell>
        <mxCell id="6cRro7XXUoIkanzyYa3W-72" value="Button" style="dashed=0;align=center;fontSize=12;shape=rect;fillColor=#999999;opacity=40;strokeColor=none;fontStyle=1;dashPattern=1 4;" vertex="1" parent="1">
          <mxGeometry x="20" y="480" width="80" height="16" as="geometry" />
        </mxCell>
        <mxCell id="6cRro7XXUoIkanzyYa3W-110" style="edgeStyle=orthogonalEdgeStyle;rounded=0;orthogonalLoop=1;jettySize=auto;html=1;entryX=0;entryY=0.5;entryDx=0;entryDy=0;fontColor=#000000;" edge="1" parent="1" source="6cRro7XXUoIkanzyYa3W-73" target="6cRro7XXUoIkanzyYa3W-109">
          <mxGeometry relative="1" as="geometry" />
        </mxCell>
        <mxCell id="6cRro7XXUoIkanzyYa3W-111" value="C/T" style="edgeLabel;html=1;align=center;verticalAlign=middle;resizable=0;points=[];fontColor=#000000;" vertex="1" connectable="0" parent="6cRro7XXUoIkanzyYa3W-110">
          <mxGeometry x="0.0751" relative="1" as="geometry">
            <mxPoint as="offset" />
          </mxGeometry>
        </mxCell>
        <mxCell id="6cRro7XXUoIkanzyYa3W-73" value="" style="rounded=0;whiteSpace=wrap;html=1;dashed=1;" vertex="1" parent="1">
          <mxGeometry x="650" y="410" width="190" height="30" as="geometry" />
        </mxCell>
        <mxCell id="6cRro7XXUoIkanzyYa3W-74" value="When Timer Ends" style="text;html=1;strokeColor=none;fillColor=none;align=left;verticalAlign=middle;whiteSpace=wrap;rounded=0;dashed=1;" vertex="1" parent="1">
          <mxGeometry x="660" y="415" width="110" height="20" as="geometry" />
        </mxCell>
        <mxCell id="6cRro7XXUoIkanzyYa3W-75" value="None" style="text;html=1;strokeColor=none;fillColor=none;align=center;verticalAlign=middle;whiteSpace=wrap;rounded=0;dashed=1;textOpacity=50;" vertex="1" parent="1">
          <mxGeometry x="780" y="415" width="30" height="20" as="geometry" />
        </mxCell>
        <mxCell id="6cRro7XXUoIkanzyYa3W-76" value="&amp;gt;" style="text;html=1;strokeColor=none;fillColor=none;align=center;verticalAlign=middle;whiteSpace=wrap;rounded=0;dashed=1;textOpacity=50;" vertex="1" parent="1">
          <mxGeometry x="810" y="415" width="20" height="20" as="geometry" />
        </mxCell>
        <mxCell id="6cRro7XXUoIkanzyYa3W-80" value="" style="rounded=0;whiteSpace=wrap;html=1;dashed=1;" vertex="1" parent="1">
          <mxGeometry x="898" y="350" width="190" height="30" as="geometry" />
        </mxCell>
        <mxCell id="6cRro7XXUoIkanzyYa3W-84" value="" style="edgeStyle=orthogonalEdgeStyle;rounded=0;orthogonalLoop=1;jettySize=auto;html=1;fontColor=#FFFFFF;" edge="1" parent="1" source="6cRro7XXUoIkanzyYa3W-81">
          <mxGeometry relative="1" as="geometry">
            <mxPoint x="840" y="365" as="targetPoint" />
          </mxGeometry>
        </mxCell>
        <mxCell id="6cRro7XXUoIkanzyYa3W-105" value="C/T" style="edgeLabel;html=1;align=center;verticalAlign=middle;resizable=0;points=[];fontColor=#000000;" vertex="1" connectable="0" parent="6cRro7XXUoIkanzyYa3W-84">
          <mxGeometry x="0.1882" y="-1" relative="1" as="geometry">
            <mxPoint x="2.69" y="1" as="offset" />
          </mxGeometry>
        </mxCell>
        <mxCell id="6cRro7XXUoIkanzyYa3W-81" value="Cancel" style="dashed=0;align=center;fontSize=12;shape=rect;fillColor=#999999;opacity=90;strokeColor=none;fontStyle=0;dashPattern=1 4;fontColor=#FFFFFF;" vertex="1" parent="1">
          <mxGeometry x="908" y="357" width="60" height="16" as="geometry" />
        </mxCell>
        <mxCell id="6cRro7XXUoIkanzyYa3W-100" style="edgeStyle=orthogonalEdgeStyle;rounded=0;orthogonalLoop=1;jettySize=auto;html=1;entryX=0;entryY=0.5;entryDx=0;entryDy=0;fontColor=#FFFFFF;" edge="1" parent="1" source="6cRro7XXUoIkanzyYa3W-82" target="6cRro7XXUoIkanzyYa3W-92">
          <mxGeometry relative="1" as="geometry" />
        </mxCell>
        <mxCell id="6cRro7XXUoIkanzyYa3W-106" value="C/T" style="edgeLabel;html=1;align=center;verticalAlign=middle;resizable=0;points=[];fontColor=#000000;" vertex="1" connectable="0" parent="6cRro7XXUoIkanzyYa3W-100">
          <mxGeometry x="-0.0771" relative="1" as="geometry">
            <mxPoint x="5.72" as="offset" />
          </mxGeometry>
        </mxCell>
        <mxCell id="6cRro7XXUoIkanzyYa3W-82" value="Pause" style="dashed=0;align=center;fontSize=12;shape=rect;opacity=70;strokeColor=none;fontStyle=0;dashPattern=1 4;fillColor=#666666;fontColor=#CCCC00;" vertex="1" parent="1">
          <mxGeometry x="1018" y="357" width="60" height="16" as="geometry" />
        </mxCell>
        <mxCell id="6cRro7XXUoIkanzyYa3W-83" value="" style="rounded=0;whiteSpace=wrap;html=1;dashed=1;" vertex="1" parent="1">
          <mxGeometry x="898" y="220" width="190" height="120" as="geometry" />
        </mxCell>
        <mxCell id="6cRro7XXUoIkanzyYa3W-86" value="" style="html=1;verticalLabelPosition=bottom;labelBackgroundColor=#ffffff;verticalAlign=top;shadow=0;dashed=0;strokeWidth=2;shape=mxgraph.ios7.misc.circle;strokeColor=#222222;fillColor=none;fontColor=#FFFFFF;opacity=90;align=center;" vertex="1" parent="1">
          <mxGeometry x="928" y="225.5" width="130" height="109" as="geometry" />
        </mxCell>
        <mxCell id="6cRro7XXUoIkanzyYa3W-87" value="" style="shape=image;html=1;verticalAlign=top;verticalLabelPosition=bottom;labelBackgroundColor=#ffffff;imageAspect=0;aspect=fixed;image=https://cdn4.iconfinder.com/data/icons/essential-app-2/16/notification-bell-ring-alarm-128.png;strokeColor=#000000;fillColor=#FFFFFF;fontColor=#FFFFFF;opacity=70;align=center;" vertex="1" parent="1">
          <mxGeometry x="958" y="289" width="10" height="10" as="geometry" />
        </mxCell>
        <mxCell id="6cRro7XXUoIkanzyYa3W-89" value="&lt;font style=&quot;font-size: 16px&quot;&gt;6 : 20 : 24&lt;/font&gt;" style="text;html=1;strokeColor=none;fillColor=none;align=center;verticalAlign=middle;whiteSpace=wrap;rounded=0;dashed=1;dashPattern=1 4;" vertex="1" parent="1">
          <mxGeometry x="943" y="264" width="100" height="20" as="geometry" />
        </mxCell>
        <mxCell id="6cRro7XXUoIkanzyYa3W-91" value="&lt;font style=&quot;font-size: 11px&quot;&gt;20:06 AM&lt;/font&gt;" style="text;html=1;strokeColor=none;fillColor=none;align=center;verticalAlign=middle;whiteSpace=wrap;rounded=0;dashed=1;dashPattern=1 4;textOpacity=70;" vertex="1" parent="1">
          <mxGeometry x="968" y="284" width="60" height="20" as="geometry" />
        </mxCell>
        <mxCell id="6cRro7XXUoIkanzyYa3W-92" value="" style="rounded=0;whiteSpace=wrap;html=1;dashed=1;" vertex="1" parent="1">
          <mxGeometry x="1139" y="350" width="190" height="30" as="geometry" />
        </mxCell>
        <mxCell id="6cRro7XXUoIkanzyYa3W-93" value="Cancel" style="dashed=0;align=center;fontSize=12;shape=rect;fillColor=#999999;opacity=90;strokeColor=none;fontStyle=0;dashPattern=1 4;fontColor=#FFFFFF;" vertex="1" parent="1">
          <mxGeometry x="1149" y="357" width="60" height="16" as="geometry" />
        </mxCell>
        <mxCell id="6cRro7XXUoIkanzyYa3W-107" style="edgeStyle=orthogonalEdgeStyle;rounded=0;orthogonalLoop=1;jettySize=auto;html=1;fontColor=#000000;entryX=0.5;entryY=1;entryDx=0;entryDy=0;" edge="1" parent="1" source="6cRro7XXUoIkanzyYa3W-94" target="6cRro7XXUoIkanzyYa3W-80">
          <mxGeometry relative="1" as="geometry">
            <mxPoint x="1289" y="490" as="targetPoint" />
            <Array as="points">
              <mxPoint x="1289" y="400" />
              <mxPoint x="993" y="400" />
            </Array>
          </mxGeometry>
        </mxCell>
        <mxCell id="6cRro7XXUoIkanzyYa3W-108" value="C/T" style="edgeLabel;html=1;align=center;verticalAlign=middle;resizable=0;points=[];fontColor=#000000;" vertex="1" connectable="0" parent="6cRro7XXUoIkanzyYa3W-107">
          <mxGeometry x="0.1838" relative="1" as="geometry">
            <mxPoint as="offset" />
          </mxGeometry>
        </mxCell>
        <mxCell id="6cRro7XXUoIkanzyYa3W-94" value="Resume" style="dashed=0;align=center;fontSize=12;shape=rect;opacity=70;strokeColor=none;fontStyle=0;dashPattern=1 4;fillColor=#666666;fontColor=#CCCC00;" vertex="1" parent="1">
          <mxGeometry x="1259" y="357" width="60" height="16" as="geometry" />
        </mxCell>
        <mxCell id="6cRro7XXUoIkanzyYa3W-95" value="" style="rounded=0;whiteSpace=wrap;html=1;dashed=1;" vertex="1" parent="1">
          <mxGeometry x="1139" y="220" width="190" height="120" as="geometry" />
        </mxCell>
        <mxCell id="6cRro7XXUoIkanzyYa3W-96" value="" style="html=1;verticalLabelPosition=bottom;labelBackgroundColor=#ffffff;verticalAlign=top;shadow=0;dashed=0;strokeWidth=2;shape=mxgraph.ios7.misc.circle;strokeColor=#222222;fillColor=none;fontColor=#FFFFFF;opacity=90;align=center;" vertex="1" parent="1">
          <mxGeometry x="1169" y="225.5" width="130" height="109" as="geometry" />
        </mxCell>
        <mxCell id="6cRro7XXUoIkanzyYa3W-97" value="" style="shape=image;html=1;verticalAlign=top;verticalLabelPosition=bottom;labelBackgroundColor=#ffffff;imageAspect=0;aspect=fixed;image=https://cdn4.iconfinder.com/data/icons/essential-app-2/16/notification-bell-ring-alarm-128.png;strokeColor=#000000;fillColor=#FFFFFF;fontColor=#FFFFFF;opacity=30;align=center;" vertex="1" parent="1">
          <mxGeometry x="1199" y="289" width="10" height="10" as="geometry" />
        </mxCell>
        <mxCell id="6cRro7XXUoIkanzyYa3W-98" value="&lt;font style=&quot;font-size: 16px&quot;&gt;6 : 20 : 24&lt;/font&gt;" style="text;html=1;strokeColor=none;fillColor=none;align=center;verticalAlign=middle;whiteSpace=wrap;rounded=0;dashed=1;dashPattern=1 4;" vertex="1" parent="1">
          <mxGeometry x="1184" y="264" width="100" height="20" as="geometry" />
        </mxCell>
        <mxCell id="6cRro7XXUoIkanzyYa3W-99" value="&lt;font style=&quot;font-size: 11px&quot;&gt;20:06 AM&lt;/font&gt;" style="text;html=1;strokeColor=none;fillColor=none;align=center;verticalAlign=middle;whiteSpace=wrap;rounded=0;dashed=1;dashPattern=1 4;textOpacity=30;" vertex="1" parent="1">
          <mxGeometry x="1209" y="284" width="60" height="20" as="geometry" />
        </mxCell>
        <mxCell id="6cRro7XXUoIkanzyYa3W-104" value="" style="edgeStyle=orthogonalEdgeStyle;rounded=0;orthogonalLoop=1;jettySize=auto;html=1;fontColor=#000000;" edge="1" parent="1" source="6cRro7XXUoIkanzyYa3W-102">
          <mxGeometry relative="1" as="geometry">
            <mxPoint x="80" y="520" as="targetPoint" />
          </mxGeometry>
        </mxCell>
        <mxCell id="6cRro7XXUoIkanzyYa3W-102" value="C/T" style="text;html=1;strokeColor=none;fillColor=none;align=center;verticalAlign=middle;whiteSpace=wrap;rounded=0;opacity=70;" vertex="1" parent="1">
          <mxGeometry x="20" y="510" width="20" height="20" as="geometry" />
        </mxCell>
        <mxCell id="6cRro7XXUoIkanzyYa3W-103" value="Click/Touch" style="text;html=1;strokeColor=none;fillColor=none;align=center;verticalAlign=middle;whiteSpace=wrap;rounded=0;opacity=70;fontColor=#000000;" vertex="1" parent="1">
          <mxGeometry x="100" y="510" width="40" height="20" as="geometry" />
        </mxCell>
        <mxCell id="6cRro7XXUoIkanzyYa3W-109" value="" style="rounded=0;whiteSpace=wrap;html=1;dashed=1;dashPattern=1 2;" vertex="1" parent="1">
          <mxGeometry x="1350" y="310.5" width="180" height="230" as="geometry" />
        </mxCell>
        <mxCell id="6cRro7XXUoIkanzyYa3W-113" value="&amp;nbsp;Tone Store" style="rounded=0;whiteSpace=wrap;html=1;dashed=1;dashPattern=1 4;align=left;fontSize=10;fontColor=#999900;" vertex="1" parent="1">
          <mxGeometry x="1350" y="330.5" width="180" height="20" as="geometry" />
        </mxCell>
        <mxCell id="6cRro7XXUoIkanzyYa3W-115" value="" style="rounded=0;whiteSpace=wrap;html=1;strokeColor=#000000;fillColor=#FFFFFF;fontColor=#000000;opacity=70;align=center;" vertex="1" parent="1">
          <mxGeometry x="1350" y="271.5" width="181" height="29" as="geometry" />
        </mxCell>
        <mxCell id="6cRro7XXUoIkanzyYa3W-116" value="&lt;u style=&quot;font-size: 10px;&quot;&gt;Cancel&lt;/u&gt;" style="text;html=1;strokeColor=none;fillColor=none;align=center;verticalAlign=middle;whiteSpace=wrap;rounded=0;opacity=70;fontSize=10;fontColor=#CCCC00;" vertex="1" parent="1">
          <mxGeometry x="1350" y="276" width="50" height="20" as="geometry" />
        </mxCell>
        <mxCell id="6cRro7XXUoIkanzyYa3W-117" value="&lt;u style=&quot;font-size: 10px;&quot;&gt;Set&lt;/u&gt;" style="text;html=1;strokeColor=none;fillColor=none;align=center;verticalAlign=middle;whiteSpace=wrap;rounded=0;opacity=70;fontSize=10;fontColor=#CCCC00;" vertex="1" parent="1">
          <mxGeometry x="1490" y="276" width="40" height="20" as="geometry" />
        </mxCell>
        <mxCell id="6cRro7XXUoIkanzyYa3W-118" value="&lt;font style=&quot;font-size: 10px&quot;&gt;&lt;b&gt;When Timer Ends&lt;/b&gt;&lt;/font&gt;" style="text;html=1;strokeColor=none;fillColor=none;align=center;verticalAlign=middle;whiteSpace=wrap;rounded=0;fontColor=#000000;opacity=70;" vertex="1" parent="1">
          <mxGeometry x="1400" y="275.5" width="90" height="20" as="geometry" />
        </mxCell>
        <mxCell id="6cRro7XXUoIkanzyYa3W-119" value="" style="rounded=0;whiteSpace=wrap;html=1;strokeColor=#000000;fillColor=#FFFFFF;fontColor=#000000;opacity=70;align=center;" vertex="1" parent="1">
          <mxGeometry x="10" y="545.5" width="181" height="29" as="geometry" />
        </mxCell>
        <mxCell id="6cRro7XXUoIkanzyYa3W-120" value="&lt;u style=&quot;font-size: 10px&quot;&gt;Left&lt;/u&gt;" style="text;html=1;strokeColor=none;fillColor=none;align=center;verticalAlign=middle;whiteSpace=wrap;rounded=0;opacity=70;fontSize=10;fontColor=#CCCC00;" vertex="1" parent="1">
          <mxGeometry x="10" y="550" width="50" height="20" as="geometry" />
        </mxCell>
        <mxCell id="6cRro7XXUoIkanzyYa3W-121" value="&lt;u&gt;Right&lt;/u&gt;" style="text;html=1;strokeColor=none;fillColor=none;align=center;verticalAlign=middle;whiteSpace=wrap;rounded=0;opacity=70;fontSize=10;fontColor=#CCCC00;" vertex="1" parent="1">
          <mxGeometry x="150" y="550" width="40" height="20" as="geometry" />
        </mxCell>
        <mxCell id="6cRro7XXUoIkanzyYa3W-122" value="&lt;font style=&quot;font-size: 10px&quot;&gt;&lt;b&gt;Title&lt;/b&gt;&lt;/font&gt;" style="text;html=1;strokeColor=none;fillColor=none;align=center;verticalAlign=middle;whiteSpace=wrap;rounded=0;fontColor=#000000;opacity=70;" vertex="1" parent="1">
          <mxGeometry x="60" y="549.5" width="90" height="20" as="geometry" />
        </mxCell>
        <mxCell id="6cRro7XXUoIkanzyYa3W-123" value="&amp;nbsp;Download All Purchased Tones" style="rounded=0;whiteSpace=wrap;html=1;dashed=1;dashPattern=1 4;align=left;fontSize=10;fontColor=#999900;" vertex="1" parent="1">
          <mxGeometry x="1350" y="350.5" width="180" height="20" as="geometry" />
        </mxCell>
        <mxCell id="6cRro7XXUoIkanzyYa3W-124" value="" style="rounded=0;whiteSpace=wrap;html=1;dashed=1;dashPattern=1 4;align=left;" vertex="1" parent="1">
          <mxGeometry x="1350" y="405.5" width="180" height="20" as="geometry" />
        </mxCell>
        <mxCell id="6cRro7XXUoIkanzyYa3W-125" value="Radar (Default)" style="text;html=1;strokeColor=none;fillColor=none;align=left;verticalAlign=middle;whiteSpace=wrap;rounded=0;fontSize=10;opacity=70;" vertex="1" parent="1">
          <mxGeometry x="1380" y="405.5" width="90" height="20" as="geometry" />
        </mxCell>
        <mxCell id="6cRro7XXUoIkanzyYa3W-126" value="" style="rounded=0;whiteSpace=wrap;html=1;dashed=1;dashPattern=1 4;align=left;" vertex="1" parent="1">
          <mxGeometry x="1351" y="425.5" width="180" height="20" as="geometry" />
        </mxCell>
        <mxCell id="6cRro7XXUoIkanzyYa3W-127" value="Waves" style="text;html=1;strokeColor=none;fillColor=none;align=left;verticalAlign=middle;whiteSpace=wrap;rounded=0;fontSize=10;opacity=70;" vertex="1" parent="1">
          <mxGeometry x="1381" y="425.5" width="90" height="20" as="geometry" />
        </mxCell>
        <mxCell id="6cRro7XXUoIkanzyYa3W-128" value="" style="rounded=0;whiteSpace=wrap;html=1;dashed=1;dashPattern=1 4;align=left;" vertex="1" parent="1">
          <mxGeometry x="1351" y="445.5" width="180" height="20" as="geometry" />
        </mxCell>
        <mxCell id="6cRro7XXUoIkanzyYa3W-129" value="Signal" style="text;html=1;strokeColor=none;fillColor=none;align=left;verticalAlign=middle;whiteSpace=wrap;rounded=0;fontSize=10;opacity=70;" vertex="1" parent="1">
          <mxGeometry x="1381" y="445.5" width="90" height="20" as="geometry" />
        </mxCell>
        <mxCell id="6cRro7XXUoIkanzyYa3W-137" style="edgeStyle=orthogonalEdgeStyle;rounded=0;orthogonalLoop=1;jettySize=auto;html=1;entryX=0;entryY=0.75;entryDx=0;entryDy=0;fontSize=10;fontColor=#000000;" edge="1" parent="1" source="6cRro7XXUoIkanzyYa3W-130" target="6cRro7XXUoIkanzyYa3W-136">
          <mxGeometry relative="1" as="geometry" />
        </mxCell>
        <mxCell id="6cRro7XXUoIkanzyYa3W-153" value="C/T" style="edgeLabel;html=1;align=center;verticalAlign=middle;resizable=0;points=[];fontSize=9;fontColor=#000000;" vertex="1" connectable="0" parent="6cRro7XXUoIkanzyYa3W-137">
          <mxGeometry x="-0.1034" y="3" relative="1" as="geometry">
            <mxPoint as="offset" />
          </mxGeometry>
        </mxCell>
        <mxCell id="6cRro7XXUoIkanzyYa3W-130" value="" style="rounded=0;whiteSpace=wrap;html=1;dashed=1;dashPattern=1 4;align=left;" vertex="1" parent="1">
          <mxGeometry x="1350" y="466.5" width="180" height="20" as="geometry" />
        </mxCell>
        <mxCell id="6cRro7XXUoIkanzyYa3W-131" value="Classic" style="text;html=1;strokeColor=none;fillColor=none;align=left;verticalAlign=middle;whiteSpace=wrap;rounded=0;fontSize=10;opacity=70;" vertex="1" parent="1">
          <mxGeometry x="1380" y="466.5" width="90" height="20" as="geometry" />
        </mxCell>
        <mxCell id="6cRro7XXUoIkanzyYa3W-132" value="&amp;gt;" style="text;html=1;strokeColor=none;fillColor=none;align=left;verticalAlign=middle;whiteSpace=wrap;rounded=0;fontSize=10;opacity=70;textOpacity=50;" vertex="1" parent="1">
          <mxGeometry x="1510" y="465.5" width="20" height="20" as="geometry" />
        </mxCell>
        <mxCell id="6cRro7XXUoIkanzyYa3W-133" value="" style="rounded=0;whiteSpace=wrap;html=1;dashed=1;dashPattern=1 4;align=left;" vertex="1" parent="1">
          <mxGeometry x="1350" y="510.5" width="180" height="20" as="geometry" />
        </mxCell>
        <mxCell id="6cRro7XXUoIkanzyYa3W-134" value="Stop Playing" style="text;html=1;strokeColor=none;fillColor=none;align=left;verticalAlign=middle;whiteSpace=wrap;rounded=0;fontSize=10;opacity=70;" vertex="1" parent="1">
          <mxGeometry x="1380" y="510.5" width="90" height="20" as="geometry" />
        </mxCell>
        <mxCell id="6cRro7XXUoIkanzyYa3W-135" value="" style="shape=image;html=1;verticalAlign=top;verticalLabelPosition=bottom;labelBackgroundColor=#ffffff;imageAspect=0;aspect=fixed;image=https://cdn0.iconfinder.com/data/icons/fatcow/32x32/tick.png;strokeColor=#000000;fillColor=#FFFFFF;fontSize=10;fontColor=#000000;opacity=70;align=left;" vertex="1" parent="1">
          <mxGeometry x="1354" y="510.5" width="20" height="20" as="geometry" />
        </mxCell>
        <mxCell id="6cRro7XXUoIkanzyYa3W-136" value="" style="rounded=0;whiteSpace=wrap;html=1;dashed=1;dashPattern=1 2;" vertex="1" parent="1">
          <mxGeometry x="1590" y="416.5" width="180" height="80" as="geometry" />
        </mxCell>
        <mxCell id="6cRro7XXUoIkanzyYa3W-138" value="" style="rounded=0;whiteSpace=wrap;html=1;strokeColor=#000000;fillColor=#FFFFFF;fontColor=#000000;opacity=70;align=center;" vertex="1" parent="1">
          <mxGeometry x="1589" y="376.5" width="181" height="29" as="geometry" />
        </mxCell>
        <mxCell id="6cRro7XXUoIkanzyYa3W-139" value="&lt;u style=&quot;font-size: 10px&quot;&gt;Back&lt;/u&gt;" style="text;html=1;strokeColor=none;fillColor=none;align=center;verticalAlign=middle;whiteSpace=wrap;rounded=0;opacity=70;fontSize=10;fontColor=#CCCC00;" vertex="1" parent="1">
          <mxGeometry x="1600" y="380.5" width="39" height="20" as="geometry" />
        </mxCell>
        <mxCell id="6cRro7XXUoIkanzyYa3W-141" value="&lt;font style=&quot;font-size: 10px&quot;&gt;&lt;b&gt;Classic&lt;/b&gt;&lt;/font&gt;" style="text;html=1;strokeColor=none;fillColor=none;align=center;verticalAlign=middle;whiteSpace=wrap;rounded=0;fontColor=#000000;opacity=70;" vertex="1" parent="1">
          <mxGeometry x="1639" y="380.5" width="90" height="20" as="geometry" />
        </mxCell>
        <mxCell id="6cRro7XXUoIkanzyYa3W-142" value="&lt;span style=&quot;font-size: 10px&quot;&gt;&amp;lt;&lt;/span&gt;" style="text;html=1;strokeColor=none;fillColor=none;align=center;verticalAlign=middle;whiteSpace=wrap;rounded=0;opacity=70;fontSize=10;fontColor=#CCCC00;" vertex="1" parent="1">
          <mxGeometry x="1589" y="380.5" width="21" height="20" as="geometry" />
        </mxCell>
        <mxCell id="6cRro7XXUoIkanzyYa3W-143" value="" style="rounded=0;whiteSpace=wrap;html=1;dashed=1;dashPattern=1 4;align=left;" vertex="1" parent="1">
          <mxGeometry x="1589" y="423.5" width="180" height="20" as="geometry" />
        </mxCell>
        <mxCell id="6cRro7XXUoIkanzyYa3W-144" value="Alarm" style="text;html=1;strokeColor=none;fillColor=none;align=left;verticalAlign=middle;whiteSpace=wrap;rounded=0;fontSize=10;opacity=70;" vertex="1" parent="1">
          <mxGeometry x="1619" y="423.5" width="90" height="20" as="geometry" />
        </mxCell>
        <mxCell id="6cRro7XXUoIkanzyYa3W-145" value="" style="rounded=0;whiteSpace=wrap;html=1;dashed=1;dashPattern=1 4;align=left;" vertex="1" parent="1">
          <mxGeometry x="1589" y="443.5" width="180" height="20" as="geometry" />
        </mxCell>
        <mxCell id="6cRro7XXUoIkanzyYa3W-146" value="Blues" style="text;html=1;strokeColor=none;fillColor=none;align=left;verticalAlign=middle;whiteSpace=wrap;rounded=0;fontSize=10;opacity=70;" vertex="1" parent="1">
          <mxGeometry x="1619" y="443.5" width="90" height="20" as="geometry" />
        </mxCell>
        <mxCell id="6cRro7XXUoIkanzyYa3W-147" value="" style="rounded=0;whiteSpace=wrap;html=1;dashed=1;dashPattern=1 4;align=left;" vertex="1" parent="1">
          <mxGeometry x="1590" y="463.5" width="180" height="20" as="geometry" />
        </mxCell>
        <mxCell id="6cRro7XXUoIkanzyYa3W-148" value="Boing" style="text;html=1;strokeColor=none;fillColor=none;align=left;verticalAlign=middle;whiteSpace=wrap;rounded=0;fontSize=10;opacity=70;" vertex="1" parent="1">
          <mxGeometry x="1620" y="463.5" width="90" height="20" as="geometry" />
        </mxCell>
        <mxCell id="6cRro7XXUoIkanzyYa3W-151" value="STORE" style="text;html=1;strokeColor=none;fillColor=none;align=center;verticalAlign=middle;whiteSpace=wrap;rounded=0;fontSize=10;fontColor=#000000;opacity=70;textOpacity=70;" vertex="1" parent="1">
          <mxGeometry x="1354" y="310.5" width="40" height="20" as="geometry" />
        </mxCell>
        <mxCell id="6cRro7XXUoIkanzyYa3W-152" value="This will download all ringstones and alerts purchased using &quot;email&quot; account." style="text;html=1;strokeColor=none;fillColor=none;align=left;verticalAlign=middle;whiteSpace=wrap;rounded=0;fontSize=9;fontColor=#000000;opacity=70;textOpacity=60;labelPosition=center;verticalLabelPosition=middle;" vertex="1" parent="1">
          <mxGeometry x="1350" y="370.5" width="180" height="30" as="geometry" />
        </mxCell>
      </root>
    </mxGraphModel>
  </diagram>
</mxfile>
